<!DOCTYPE HTML PUBLIC "-//W3C//DTD HTML 4.01 Transitional//EN">
<HTML>
 <HEAD>
   <TITLE> [Haiku-bugs] [Haiku] #4653: OGG Theora support in MediaPlayer
   </TITLE>
   <LINK REL="Index" HREF="http://lists.berlios.de/pipermail/haiku-bugs/2009-September/index.html" >
   <LINK REL="made" HREF="mailto:haiku-bugs%40lists.berlios.de?Subject=Re%3A%20%5BHaiku-bugs%5D%20%5BHaiku%5D%20%234653%3A%20OGG%20Theora%20support%20in%20MediaPlayer&In-Reply-To=%3C041.c3157d3e4418853d486067b99f52854a%40haiku-os.org%3E">
   <META NAME="robots" CONTENT="index,nofollow">
   <style type="text/css">
       pre {
           white-space: pre-wrap;       /* css-2.1, curent FF, Opera, Safari */
           }
   </style>
   <META http-equiv="Content-Type" content="text/html; charset=us-ascii">
   <LINK REL="Previous"  HREF="022082.html">
   <LINK REL="Next"  HREF="022096.html">
 </HEAD>
 <BODY BGCOLOR="#ffffff">
   <H1>[Haiku-bugs] [Haiku] #4653: OGG Theora support in MediaPlayer</H1>
    <B>leszek</B> 
    <A HREF="mailto:haiku-bugs%40lists.berlios.de?Subject=Re%3A%20%5BHaiku-bugs%5D%20%5BHaiku%5D%20%234653%3A%20OGG%20Theora%20support%20in%20MediaPlayer&In-Reply-To=%3C041.c3157d3e4418853d486067b99f52854a%40haiku-os.org%3E"
       TITLE="[Haiku-bugs] [Haiku] #4653: OGG Theora support in MediaPlayer">trac at haiku-os.org
       </A><BR>
    <I>Sun Sep 27 11:13:48 CEST 2009</I>
    <P><UL>
        <LI>Previous message: <A HREF="022082.html">[Haiku-bugs] [Haiku] #4652: Implement origin mode in Terminal; miscellaneous positioning fixes
</A></li>
        <LI>Next message: <A HREF="022096.html">[Haiku-bugs] [Haiku] #4653: OGG Theora support in MediaPlayer
</A></li>
         <LI> <B>Messages sorted by:</B> 
              <a href="date.html#22065">[ date ]</a>
              <a href="thread.html#22065">[ thread ]</a>
              <a href="subject.html#22065">[ subject ]</a>
              <a href="author.html#22065">[ author ]</a>
         </LI>
       </UL>
    <HR>  
<!--beginarticle-->
<PRE>#4653: OGG Theora support in MediaPlayer
----------------------------------+-----------------------------------------
 Reporter:  leszek                |       Owner:  nobody   
     Type:  bug                   |      Status:  new      
 Priority:  normal                |   Milestone:  R1       
Component:  Audio &amp; Video/Codecs  |     Version:  R1/alpha1
Blockedby:                        |    Platform:  All      
 Blocking:                        |  
----------------------------------+-----------------------------------------
 The OGV and OGG container format seems to be supported but only audio is
 playing. Here's the file info (ffmpeg -i):


 {{{
 Input #0, ogg, from '/leszek/Videos/Screencasts/custom-usplash.ogv':
   Duration: 00:20:55.20, start: 0.000000, bitrate: 260 kb/s
     Stream #0.0: Invalid Codec type -1
     Stream #0.1: Video: theora, yuv420p, 720x480, PAR 1:1 DAR 3:2, 15 tbr,
 15 tbn, 15 tbc
     Stream #0.2: Audio: vorbis, 44100 Hz, 2 channels, s16, 80 kb/s
   Metadata
     ENCODER         : ffmpeg2theora 0.21
 }}}


 Hope this helps for debugging. What is intersting is Stream #0.0 that is
 recognized as invalid. I am not sure but I heard something about skeleton'
 meta-data that is stored there. The theora video decoder is still missing
 I suppose.
 Also there is the new Thusnelda Encoder for Theora. It should be
 compatible to the older files, so nothing has to be changed in the decoder
 to support it. It would be awesome to have a encoder also.

 I attached a small example video I created on my ZEVENOS box with
 recordmydesktop. So it might be somehow be a little different then the
 normal ogg files but  it should help ;)

-- 
Ticket URL: &lt;<A HREF="http://dev.haiku-os.org/ticket/4653">http://dev.haiku-os.org/ticket/4653</A>&gt;
Haiku &lt;<A HREF="http://dev.haiku-os.org">http://dev.haiku-os.org</A>&gt;
The Haiku operating system.

</PRE>

<!--endarticle-->
    <HR>
    <P><UL>
        <!--threads-->
	<LI>Previous message: <A HREF="022082.html">[Haiku-bugs] [Haiku] #4652: Implement origin mode in Terminal; miscellaneous positioning fixes
</A></li>
	<LI>Next message: <A HREF="022096.html">[Haiku-bugs] [Haiku] #4653: OGG Theora support in MediaPlayer
</A></li>
         <LI> <B>Messages sorted by:</B> 
              <a href="date.html#22065">[ date ]</a>
              <a href="thread.html#22065">[ thread ]</a>
              <a href="subject.html#22065">[ subject ]</a>
              <a href="author.html#22065">[ author ]</a>
         </LI>
       </UL>

<hr>
<a href="https://lists.berlios.de/mailman/listinfo/haiku-bugs">More information about the Haiku-bugs
mailing list</a><br>
</body></html>
